<svg xmlns="http://www.w3.org/2000/svg" viewBox="0 0 1504 998" width="1504" height="998">
  <defs>
    <style>
      text { font-family: ui-sans-serif, system-ui,
        'Segoe UI', Helvetica, Arial, sans-serif; }
      .box { fill: hsl(0 0% 100%);
        stroke: hsl(217 30% 88%); stroke-width: 1; }
      .head { fill: hsl(217 36% 46%); }
      .thead { fill: hsl(0 0% 100%); font-size: 12px;
        font-weight: 700; }
      .col, .pk, .fk, .type { font-size: 11px; }
      .col { fill: hsl(217 45% 15%); }
      .pk { fill: hsl(217 45% 15%); font-weight: 700; }
      .fk { fill: hsl(217 38% 38%);
        font-style: italic; }
      .type { fill: hsl(217 12% 55%);
        text-anchor: end; }
      .edge { fill: none; stroke: hsl(217 34% 60%);
        stroke-width: 1.5; }
    </style>
  </defs>
  <rect x="0" y="0" width="1504" height="998" fill="hsl(217 30% 97%)" />
  <path class="edge" d="M 648 718 C 590.4 718, 305.6 855, 248 855" />
  <path class="edge" d="M 648 98 C 590.4 98, 305.6 855, 248 855" />
  <path class="edge" d="M 648 408 C 590.4 408, 305.6 116, 248 116" />
  <path class="edge" d="M 952 253 C 894.4 253, 609.6 444, 552 444" />
  <path class="edge" d="M 952 253 C 894.4 253, 305.6 116, 248 116" />
  <path class="edge" d="M 648 581 C 590.4 581, 305.6 116, 248 116" />
  <path class="edge" d="M 648 581 C 590.4 581, 609.6 745, 552 745" />
  <path class="edge" d="M 1256 89 C 1198.4 89, 1217.6 900, 1160 900" />
  <path class="edge" d="M 1256 89 C 1198.4 89, 1217.6 736, 1160 736" />
  <path class="edge" d="M 952 736 C 894.4 736, 609.6 617, 552 617" />
  <path class="edge" d="M 648 235 C 590.4 235, 305.6 116, 248 116" />
  <path class="edge" d="M 648 235 C 590.4 235, 609.6 617, 552 617" />
  <path class="edge" d="M 648 855 C 590.4 855, 305.6 307, 248 307" />
  <path class="edge" d="M 648 855 C 590.4 855, 305.6 855, 248 855" />
  <path class="edge" d="M 952 107 C 894.4 107, 609.6 71, 552 71" />
  <path class="edge" d="M 952 107 C 894.4 107, 305.6 855, 248 855" />
  <path class="edge" d="M 952 563 C 894.4 563, 609.6 444, 552 444" />
  <path class="edge" d="M 952 563 C 894.4 563, 609.6 71, 552 71" />
  <path class="edge" d="M 952 563 C 894.4 563, 305.6 855, 248 855" />
  <path class="edge" d="M 952 399 C 894.4 399, 609.6 444, 552 444" />
  <path class="edge" d="M 952 399 C 894.4 399, 609.6 71, 552 71" />
  <path class="edge" d="M 952 399 C 894.4 399, 305.6 855, 248 855" />
  <path class="edge" d="M 952 900 C 894.4 900, 305.6 855, 248 855" />
  <g class="table">
    <rect class="box" x="40" y="824" width="208" height="62" rx="6" />
    <rect class="head" x="40" y="824" width="208" height="26" rx="6" />
    <text class="thead" x="50" y="842">members</text>
    <text class="pk" x="50" y="863">id</text>
    <text class="type" x="238" y="863">id</text>
    <text class="col" x="50" y="881">type</text>
    <text class="type" x="238" y="881">MemberKind</text>
  </g>
  <g class="table">
    <rect class="box" x="648" y="660" width="208" height="116" rx="6" />
    <rect class="head" x="648" y="660" width="208" height="26" rx="6" />
    <text class="thead" x="658" y="678">human_members</text>
    <text class="pk" x="658" y="699">id</text>
    <text class="type" x="846" y="699">id</text>
    <text class="col" x="658" y="717">title</text>
    <text class="type" x="846" y="717">text</text>
    <text class="col" x="658" y="735">department</text>
    <text class="type" x="846" y="735">text</text>
    <text class="col" x="658" y="753">strengths</text>
    <text class="type" x="846" y="753">json</text>
    <text class="col" x="658" y="771">team_dimensions</text>
    <text class="type" x="846" y="771">json</text>
  </g>
  <g class="table">
    <rect class="box" x="648" y="40" width="208" height="116" rx="6" />
    <rect class="head" x="648" y="40" width="208" height="26" rx="6" />
    <text class="thead" x="658" y="58">ai_members</text>
    <text class="pk" x="658" y="79">id</text>
    <text class="type" x="846" y="79">id</text>
    <text class="col" x="658" y="97">name</text>
    <text class="type" x="846" y="97">text</text>
    <text class="col" x="658" y="115">description</text>
    <text class="type" x="846" y="115">text</text>
    <text class="col" x="658" y="133">skill_focus</text>
    <text class="type" x="846" y="133">text</text>
    <text class="col" x="658" y="151">model</text>
    <text class="type" x="846" y="151">id</text>
  </g>
  <g class="table">
    <rect class="box" x="40" y="422" width="208" height="62" rx="6" />
    <rect class="head" x="40" y="422" width="208" height="26" rx="6" />
    <text class="thead" x="50" y="440">identities</text>
    <text class="pk" x="50" y="461">id</text>
    <text class="type" x="238" y="461">id</text>
    <text class="col" x="50" y="479">kind</text>
    <text class="type" x="238" y="479">IdentityKind</text>
  </g>
  <g class="table">
    <rect class="box" x="40" y="678" width="208" height="116" rx="6" />
    <rect class="head" x="40" y="678" width="208" height="26" rx="6" />
    <text class="thead" x="50" y="696">identity_pii</text>
    <text class="pk" x="50" y="717">id</text>
    <text class="type" x="238" y="717">id</text>
    <text class="col" x="50" y="735">name</text>
    <text class="type" x="238" y="735">text</text>
    <text class="col" x="50" y="753">email</text>
    <text class="type" x="238" y="753">text</text>
    <text class="col" x="50" y="771">phone</text>
    <text class="type" x="238" y="771">text</text>
    <text class="col" x="50" y="789">bio</text>
    <text class="type" x="238" y="789">text</text>
  </g>
  <g class="table">
    <rect class="box" x="40" y="514" width="208" height="134" rx="6" />
    <rect class="head" x="40" y="514" width="208" height="26" rx="6" />
    <text class="thead" x="50" y="532">identity_credentials</text>
    <text class="pk" x="50" y="553">id</text>
    <text class="type" x="238" y="553">id</text>
    <text class="col" x="50" y="571">identity_id</text>
    <text class="type" x="238" y="571">id</text>
    <text class="col" x="50" y="589">kind</text>
    <text class="type" x="238" y="589">IdentityCredentialKind</text>
    <text class="col" x="50" y="607">status</text>
    <text class="type" x="238" y="607">IdentityCredentialStatus</text>
    <text class="col" x="50" y="625">secret</text>
    <text class="type" x="238" y="625">text</text>
    <text class="col" x="50" y="643">at</text>
    <text class="type" x="238" y="643">text</text>
  </g>
  <g class="table">
    <rect class="box" x="40" y="222" width="208" height="170" rx="6" />
    <rect class="head" x="40" y="222" width="208" height="26" rx="6" />
    <text class="thead" x="50" y="240">ideas</text>
    <text class="pk" x="50" y="261">id</text>
    <text class="type" x="238" y="261">id</text>
    <text class="col" x="50" y="279">title</text>
    <text class="type" x="238" y="279">text</text>
    <text class="col" x="50" y="297">position</text>
    <text class="type" x="238" y="297">num</text>
    <text class="col" x="50" y="315">problem_statement</text>
    <text class="type" x="238" y="315">text</text>
    <text class="col" x="50" y="333">target_users</text>
    <text class="type" x="238" y="333">text</text>
    <text class="col" x="50" y="351">proposed_solution</text>
    <text class="type" x="238" y="351">text</text>
    <text class="col" x="50" y="369">expected_outcome</text>
    <text class="type" x="238" y="369">text</text>
    <text class="col" x="50" y="387">success_metrics</text>
    <text class="type" x="238" y="387">text</text>
  </g>
  <g class="table">
    <rect class="box" x="344" y="350" width="208" height="188" rx="6" />
    <rect class="head" x="344" y="350" width="208" height="26" rx="6" />
    <text class="thead" x="354" y="368">projects</text>
    <text class="pk" x="354" y="389">id</text>
    <text class="type" x="542" y="389">id</text>
    <text class="col" x="354" y="407">title</text>
    <text class="type" x="542" y="407">text</text>
    <text class="col" x="354" y="425">description</text>
    <text class="type" x="542" y="425">text</text>
    <text class="col" x="354" y="443">progress</text>
    <text class="type" x="542" y="443">num</text>
    <text class="col" x="354" y="461">start_date</text>
    <text class="type" x="542" y="461">text</text>
    <text class="col" x="354" y="479">target_end_date</text>
    <text class="type" x="542" y="479">text</text>
    <text class="col" x="354" y="497">estimated_cost</text>
    <text class="type" x="542" y="497">num</text>
    <text class="col" x="354" y="515">actual_cost</text>
    <text class="type" x="542" y="515">num</text>
    <text class="col" x="354" y="533">position</text>
    <text class="type" x="542" y="533">num</text>
  </g>
  <g class="table">
    <rect class="box" x="40" y="40" width="208" height="152" rx="6" />
    <rect class="head" x="40" y="40" width="208" height="26" rx="6" />
    <text class="thead" x="50" y="58">flows</text>
    <text class="pk" x="50" y="79">id</text>
    <text class="type" x="238" y="79">id</text>
    <text class="col" x="50" y="97">name</text>
    <text class="type" x="238" y="97">text</text>
    <text class="col" x="50" y="115">is_locked</text>
    <text class="type" x="238" y="115">bool</text>
    <text class="col" x="50" y="133">is_auto_layout</text>
    <text class="type" x="238" y="133">bool</text>
    <text class="col" x="50" y="151">is_auto_fit</text>
    <text class="type" x="238" y="151">bool</text>
    <text class="col" x="50" y="169">lock_timeout</text>
    <text class="type" x="238" y="169">num</text>
    <text class="col" x="50" y="187">graph</text>
    <text class="type" x="238" y="187">json</text>
  </g>
  <g class="table">
    <rect class="box" x="648" y="314" width="208" height="188" rx="6" />
    <rect class="head" x="648" y="314" width="208" height="26" rx="6" />
    <text class="thead" x="658" y="332">flow_versions</text>
    <text class="pk" x="658" y="353">id</text>
    <text class="type" x="846" y="353">id</text>
    <text class="fk" x="658" y="371">flow_id</text>
    <text class="type" x="846" y="371">id</text>
    <text class="col" x="658" y="389">name</text>
    <text class="type" x="846" y="389">text</text>
    <text class="col" x="658" y="407">is_locked</text>
    <text class="type" x="846" y="407">bool</text>
    <text class="col" x="658" y="425">is_auto_layout</text>
    <text class="type" x="846" y="425">bool</text>
    <text class="col" x="658" y="443">is_auto_fit</text>
    <text class="type" x="846" y="443">bool</text>
    <text class="col" x="658" y="461">lock_timeout</text>
    <text class="type" x="846" y="461">num</text>
    <text class="col" x="658" y="479">graph</text>
    <text class="type" x="846" y="479">json</text>
    <text class="col" x="658" y="497">at</text>
    <text class="type" x="846" y="497">text</text>
  </g>
  <g class="table">
    <rect class="box" x="952" y="204" width="208" height="98" rx="6" />
    <rect class="head" x="952" y="204" width="208" height="26" rx="6" />
    <text class="thead" x="962" y="222">project_flows</text>
    <text class="pk" x="962" y="243">id</text>
    <text class="type" x="1150" y="243">id</text>
    <text class="fk" x="962" y="261">project_id</text>
    <text class="type" x="1150" y="261">id</text>
    <text class="fk" x="962" y="279">flow_id</text>
    <text class="type" x="1150" y="279">id</text>
    <text class="col" x="962" y="297">at</text>
    <text class="type" x="1150" y="297">text</text>
  </g>
  <g class="table">
    <rect class="box" x="344" y="696" width="208" height="98" rx="6" />
    <rect class="head" x="344" y="696" width="208" height="26" rx="6" />
    <text class="thead" x="354" y="714">work_orders</text>
    <text class="pk" x="354" y="735">id</text>
    <text class="type" x="542" y="735">id</text>
    <text class="col" x="354" y="753">display_id</text>
    <text class="type" x="542" y="753">text</text>
    <text class="col" x="354" y="771">flow_graph</text>
    <text class="type" x="542" y="771">json</text>
    <text class="col" x="354" y="789">position</text>
    <text class="type" x="542" y="789">num</text>
  </g>
  <g class="table">
    <rect class="box" x="648" y="532" width="208" height="98" rx="6" />
    <rect class="head" x="648" y="532" width="208" height="26" rx="6" />
    <text class="thead" x="658" y="550">flow_work_orders</text>
    <text class="pk" x="658" y="571">id</text>
    <text class="type" x="846" y="571">id</text>
    <text class="fk" x="658" y="589">flow_id</text>
    <text class="type" x="846" y="589">id</text>
    <text class="fk" x="658" y="607">work_order_id</text>
    <text class="type" x="846" y="607">id</text>
    <text class="col" x="658" y="625">at</text>
    <text class="type" x="846" y="625">text</text>
  </g>
  <g class="table">
    <rect class="box" x="1256" y="40" width="208" height="98" rx="6" />
    <rect class="head" x="1256" y="40" width="208" height="26" rx="6" />
    <text class="thead" x="1266" y="58">state_field_values</text>
    <text class="pk" x="1266" y="79">id</text>
    <text class="type" x="1454" y="79">id</text>
    <text class="fk" x="1266" y="97">state_event_id</text>
    <text class="type" x="1454" y="97">id</text>
    <text class="fk" x="1266" y="115">field_id</text>
    <text class="type" x="1454" y="115">id</text>
    <text class="col" x="1266" y="133">value</text>
    <text class="type" x="1454" y="133">text</text>
  </g>
  <g class="table">
    <rect class="box" x="344" y="568" width="208" height="98" rx="6" />
    <rect class="head" x="344" y="568" width="208" height="26" rx="6" />
    <text class="thead" x="354" y="586">records</text>
    <text class="pk" x="354" y="607">id</text>
    <text class="type" x="542" y="607">id</text>
    <text class="col" x="354" y="625">name</text>
    <text class="type" x="542" y="625">text</text>
    <text class="col" x="354" y="643">description</text>
    <text class="type" x="542" y="643">text</text>
    <text class="col" x="354" y="661">position</text>
    <text class="type" x="542" y="661">num</text>
  </g>
  <g class="table">
    <rect class="box" x="952" y="660" width="208" height="152" rx="6" />
    <rect class="head" x="952" y="660" width="208" height="26" rx="6" />
    <text class="thead" x="962" y="678">record_attributes</text>
    <text class="pk" x="962" y="699">id</text>
    <text class="type" x="1150" y="699">id</text>
    <text class="fk" x="962" y="717">record_id</text>
    <text class="type" x="1150" y="717">id</text>
    <text class="col" x="962" y="735">name</text>
    <text class="type" x="1150" y="735">text</text>
    <text class="col" x="962" y="753">attribute_type</text>
    <text class="type" x="1150" y="753">AttributeType</text>
    <text class="col" x="962" y="771">sort_order</text>
    <text class="type" x="1150" y="771">num</text>
    <text class="col" x="962" y="789">options</text>
    <text class="type" x="1150" y="789">json</text>
    <text class="col" x="962" y="807">constraints</text>
    <text class="type" x="1150" y="807">json</text>
  </g>
  <g class="table">
    <rect class="box" x="648" y="186" width="208" height="98" rx="6" />
    <rect class="head" x="648" y="186" width="208" height="26" rx="6" />
    <text class="thead" x="658" y="204">flow_records</text>
    <text class="pk" x="658" y="225">id</text>
    <text class="type" x="846" y="225">id</text>
    <text class="fk" x="658" y="243">flow_id</text>
    <text class="type" x="846" y="243">id</text>
    <text class="fk" x="658" y="261">record_id</text>
    <text class="type" x="846" y="261">id</text>
    <text class="col" x="658" y="279">at</text>
    <text class="type" x="846" y="279">text</text>
  </g>
  <g class="table">
    <rect class="box" x="344" y="132" width="208" height="188" rx="6" />
    <rect class="head" x="344" y="132" width="208" height="26" rx="6" />
    <text class="thead" x="354" y="150">organization</text>
    <text class="pk" x="354" y="171">id</text>
    <text class="type" x="542" y="171">id</text>
    <text class="col" x="354" y="189">name</text>
    <text class="type" x="542" y="189">text</text>
    <text class="col" x="354" y="207">domain</text>
    <text class="type" x="542" y="207">text</text>
    <text class="col" x="354" y="225">next_billing</text>
    <text class="type" x="542" y="225">text</text>
    <text class="col" x="354" y="243">seats</text>
    <text class="type" x="542" y="243">num</text>
    <text class="col" x="354" y="261">used_seats</text>
    <text class="type" x="542" y="261">num</text>
    <text class="col" x="354" y="279">projects_limit</text>
    <text class="type" x="542" y="279">num</text>
    <text class="col" x="354" y="297">ideas_limit</text>
    <text class="type" x="542" y="297">num</text>
    <text class="col" x="354" y="315">last_activity</text>
    <text class="type" x="542" y="315">text</text>
  </g>
  <g class="table">
    <rect class="box" x="648" y="806" width="208" height="98" rx="6" />
    <rect class="head" x="648" y="806" width="208" height="26" rx="6" />
    <text class="thead" x="658" y="824">idea_submissions</text>
    <text class="pk" x="658" y="845">id</text>
    <text class="type" x="846" y="845">id</text>
    <text class="fk" x="658" y="863">idea_id</text>
    <text class="type" x="846" y="863">id</text>
    <text class="fk" x="658" y="881">member_id</text>
    <text class="type" x="846" y="881">id</text>
    <text class="col" x="658" y="899">at</text>
    <text class="type" x="846" y="899">text</text>
  </g>
  <g class="table">
    <rect class="box" x="344" y="40" width="208" height="62" rx="6" />
    <rect class="head" x="344" y="40" width="208" height="26" rx="6" />
    <text class="thead" x="354" y="58">objectives</text>
    <text class="pk" x="354" y="79">id</text>
    <text class="type" x="542" y="79">id</text>
    <text class="col" x="354" y="97">position</text>
    <text class="type" x="542" y="97">num</text>
  </g>
  <g class="table">
    <rect class="box" x="952" y="40" width="208" height="134" rx="6" />
    <rect class="head" x="952" y="40" width="208" height="26" rx="6" />
    <text class="thead" x="962" y="58">objective_revisions</text>
    <text class="pk" x="962" y="79">id</text>
    <text class="type" x="1150" y="79">text</text>
    <text class="fk" x="962" y="97">objective_id</text>
    <text class="type" x="1150" y="97">id</text>
    <text class="col" x="962" y="115">name</text>
    <text class="type" x="1150" y="115">text</text>
    <text class="col" x="962" y="133">description</text>
    <text class="type" x="1150" y="133">text</text>
    <text class="fk" x="962" y="151">member_id</text>
    <text class="type" x="1150" y="151">id</text>
    <text class="col" x="962" y="169">at</text>
    <text class="type" x="1150" y="169">text</text>
  </g>
  <g class="table">
    <rect class="box" x="952" y="496" width="208" height="134" rx="6" />
    <rect class="head" x="952" y="496" width="208" height="26" rx="6" />
    <text class="thead" x="962" y="514">project_objective_baseline_scores</text>
    <text class="pk" x="962" y="535">id</text>
    <text class="type" x="1150" y="535">text</text>
    <text class="fk" x="962" y="553">project_id</text>
    <text class="type" x="1150" y="553">id</text>
    <text class="fk" x="962" y="571">objective_id</text>
    <text class="type" x="1150" y="571">id</text>
    <text class="col" x="962" y="589">score</text>
    <text class="type" x="1150" y="589">num</text>
    <text class="fk" x="962" y="607">member_id</text>
    <text class="type" x="1150" y="607">id</text>
    <text class="col" x="962" y="625">at</text>
    <text class="type" x="1150" y="625">text</text>
  </g>
  <g class="table">
    <rect class="box" x="952" y="332" width="208" height="134" rx="6" />
    <rect class="head" x="952" y="332" width="208" height="26" rx="6" />
    <text class="thead" x="962" y="350">project_objective_actual_scores</text>
    <text class="pk" x="962" y="371">id</text>
    <text class="type" x="1150" y="371">text</text>
    <text class="fk" x="962" y="389">project_id</text>
    <text class="type" x="1150" y="389">id</text>
    <text class="fk" x="962" y="407">objective_id</text>
    <text class="type" x="1150" y="407">id</text>
    <text class="col" x="962" y="425">score</text>
    <text class="type" x="1150" y="425">num</text>
    <text class="fk" x="962" y="443">member_id</text>
    <text class="type" x="1150" y="443">id</text>
    <text class="col" x="962" y="461">at</text>
    <text class="type" x="1150" y="461">text</text>
  </g>
  <g class="table">
    <rect class="box" x="952" y="842" width="208" height="116" rx="6" />
    <rect class="head" x="952" y="842" width="208" height="26" rx="6" />
    <text class="thead" x="962" y="860">states</text>
    <text class="pk" x="962" y="881">id</text>
    <text class="type" x="1150" y="881">id</text>
    <text class="col" x="962" y="899">entity_id</text>
    <text class="type" x="1150" y="899">id</text>
    <text class="col" x="962" y="917">state</text>
    <text class="type" x="1150" y="917">text</text>
    <text class="fk" x="962" y="935">member_id</text>
    <text class="type" x="1150" y="935">id</text>
    <text class="col" x="962" y="953">at</text>
    <text class="type" x="1150" y="953">text</text>
  </g>
</svg>
