<svg xmlns="http://www.w3.org/2000/svg" viewBox="0 0 2416 1034" width="2416" height="1034">
  <defs>
    <style>
      text { font-family: ui-sans-serif, system-ui,
        'Segoe UI', Helvetica, Arial, sans-serif; }
      .box { fill: hsl(0 0% 100%);
        stroke: hsl(217 30% 88%); stroke-width: 1; }
      .head { fill: hsl(217 36% 46%); }
      .thead { fill: hsl(0 0% 100%); font-size: 12px;
        font-weight: 700; }
      .col, .pk, .fk, .type { font-size: 11px; }
      .col { fill: hsl(217 45% 15%); }
      .pk { fill: hsl(217 45% 15%); font-weight: 700; }
      .fk { fill: hsl(217 38% 38%);
        font-style: italic; }
      .type { fill: hsl(217 12% 55%);
        text-anchor: end; }
      .edge { fill: none; stroke: hsl(217 34% 60%);
        stroke-width: 1.5; }
    </style>
  </defs>
  <rect x="0" y="0" width="2416" height="1034" fill="hsl(217 30% 97%)" />
  <path class="edge" d="M 648 426 C 590.4 426, 609.6 71, 552 71" />
  <path class="edge" d="M 648 98 C 590.4 98, 609.6 71, 552 71" />
  <path class="edge" d="M 648 781 C 590.4 781, 609.6 208, 552 208" />
  <path class="edge" d="M 952 736 C 894.4 736, 609.6 208, 552 208" />
  <path class="edge" d="M 648 608 C 590.4 608, 609.6 208, 552 208" />
  <path class="edge" d="M 952 381 C 894.4 381, 609.6 208, 552 208" />
  <path class="edge" d="M 648 262 C 590.4 262, 609.6 208, 552 208" />
  <path class="edge" d="M 1560 480 C 1502.4 480, 913.6 262, 856 262" />
  <path class="edge" d="M 1560 134 C 1502.4 134, 913.6 262, 856 262" />
  <path class="edge" d="M 2168 107 C 2110.4 107, 913.6 262, 856 262" />
  <path class="edge" d="M 2168 107 C 2110.4 107, 1825.6 134, 1768 134" />
  <path class="edge" d="M 2168 107 C 2110.4 107, 1825.6 134, 1768 134" />
  <path class="edge" d="M 2168 444 C 2110.4 444, 1825.6 134, 1768 134" />
  <path class="edge" d="M 2168 444 C 2110.4 444, 609.6 71, 552 71" />
  <path class="edge" d="M 2168 280 C 2110.4 280, 1825.6 134, 1768 134" />
  <path class="edge" d="M 2168 280 C 2110.4 280, 2129.6 581, 2072 581" />
  <path class="edge" d="M 1864 89 C 1806.4 89, 1217.6 381, 1160 381" />
  <path class="edge" d="M 1864 89 C 1806.4 89, 913.6 262, 856 262" />
  <path class="edge" d="M 1256 98 C 1198.4 98, 609.6 208, 552 208" />
  <path class="edge" d="M 1560 653 C 1502.4 653, 913.6 262, 856 262" />
  <path class="edge" d="M 1560 653 C 1502.4 653, 1521.6 98, 1464 98" />
  <path class="edge" d="M 2168 581 C 2110.4 581, 1217.6 900, 1160 900" />
  <path class="edge" d="M 2168 581 C 2110.4 581, 2129.6 581, 2072 581" />
  <path class="edge" d="M 952 572 C 894.4 572, 609.6 208, 552 208" />
  <path class="edge" d="M 1864 581 C 1806.4 581, 609.6 208, 552 208" />
  <path class="edge" d="M 1864 581 C 1806.4 581, 1217.6 572, 1160 572" />
  <path class="edge" d="M 1560 307 C 1502.4 307, 913.6 262, 856 262" />
  <path class="edge" d="M 1560 307 C 1502.4 307, 1217.6 572, 1160 572" />
  <path class="edge" d="M 952 89 C 894.4 89, 609.6 208, 552 208" />
  <path class="edge" d="M 648 909 C 590.4 909, 609.6 208, 552 208" />
  <path class="edge" d="M 1560 781 C 1502.4 781, 913.6 608, 856 608" />
  <path class="edge" d="M 1560 781 C 1502.4 781, 609.6 71, 552 71" />
  <path class="edge" d="M 952 208 C 894.4 208, 609.6 208, 552 208" />
  <path class="edge" d="M 1560 927 C 1502.4 927, 1217.6 208, 1160 208" />
  <path class="edge" d="M 1560 927 C 1502.4 927, 609.6 71, 552 71" />
  <path class="edge" d="M 1864 399 C 1806.4 399, 1217.6 381, 1160 381" />
  <path class="edge" d="M 1864 399 C 1806.4 399, 1217.6 208, 1160 208" />
  <path class="edge" d="M 1864 399 C 1806.4 399, 609.6 71, 552 71" />
  <path class="edge" d="M 1864 235 C 1806.4 235, 1217.6 381, 1160 381" />
  <path class="edge" d="M 1864 235 C 1806.4 235, 1217.6 208, 1160 208" />
  <path class="edge" d="M 1864 235 C 1806.4 235, 609.6 71, 552 71" />
  <path class="edge" d="M 952 900 C 894.4 900, 609.6 71, 552 71" />
  <g class="table">
    <rect class="box" x="344" y="40" width="208" height="62" rx="6" />
    <rect class="head" x="344" y="40" width="208" height="26" rx="6" />
    <text class="thead" x="354" y="58">members</text>
    <text class="pk" x="354" y="79">id</text>
    <text class="type" x="542" y="79">id</text>
    <text class="col" x="354" y="97">type</text>
    <text class="type" x="542" y="97">MemberKind</text>
  </g>
  <g class="table">
    <rect class="box" x="648" y="368" width="208" height="116" rx="6" />
    <rect class="head" x="648" y="368" width="208" height="26" rx="6" />
    <text class="thead" x="658" y="386">human_members</text>
    <text class="pk" x="658" y="407">id</text>
    <text class="type" x="846" y="407">id</text>
    <text class="col" x="658" y="425">title</text>
    <text class="type" x="846" y="425">text</text>
    <text class="col" x="658" y="443">department</text>
    <text class="type" x="846" y="443">text</text>
    <text class="col" x="658" y="461">strengths</text>
    <text class="type" x="846" y="461">json</text>
    <text class="col" x="658" y="479">team_dimensions</text>
    <text class="type" x="846" y="479">json</text>
  </g>
  <g class="table">
    <rect class="box" x="648" y="40" width="208" height="116" rx="6" />
    <rect class="head" x="648" y="40" width="208" height="26" rx="6" />
    <text class="thead" x="658" y="58">ai_members</text>
    <text class="pk" x="658" y="79">id</text>
    <text class="type" x="846" y="79">id</text>
    <text class="col" x="658" y="97">name</text>
    <text class="type" x="846" y="97">text</text>
    <text class="col" x="658" y="115">description</text>
    <text class="type" x="846" y="115">text</text>
    <text class="col" x="658" y="133">skill_focus</text>
    <text class="type" x="846" y="133">text</text>
    <text class="col" x="658" y="151">model</text>
    <text class="type" x="846" y="151">id</text>
  </g>
  <g class="table">
    <rect class="box" x="40" y="204" width="208" height="62" rx="6" />
    <rect class="head" x="40" y="204" width="208" height="26" rx="6" />
    <text class="thead" x="50" y="222">identities</text>
    <text class="pk" x="50" y="243">id</text>
    <text class="type" x="238" y="243">id</text>
    <text class="col" x="50" y="261">kind</text>
    <text class="type" x="238" y="261">IdentityKind</text>
  </g>
  <g class="table">
    <rect class="box" x="40" y="460" width="208" height="116" rx="6" />
    <rect class="head" x="40" y="460" width="208" height="26" rx="6" />
    <text class="thead" x="50" y="478">identity_pii</text>
    <text class="pk" x="50" y="499">id</text>
    <text class="type" x="238" y="499">id</text>
    <text class="col" x="50" y="517">name</text>
    <text class="type" x="238" y="517">text</text>
    <text class="col" x="50" y="535">email</text>
    <text class="type" x="238" y="535">text</text>
    <text class="col" x="50" y="553">phone</text>
    <text class="type" x="238" y="553">text</text>
    <text class="col" x="50" y="571">bio</text>
    <text class="type" x="238" y="571">text</text>
  </g>
  <g class="table">
    <rect class="box" x="40" y="296" width="208" height="134" rx="6" />
    <rect class="head" x="40" y="296" width="208" height="26" rx="6" />
    <text class="thead" x="50" y="314">identity_credentials</text>
    <text class="pk" x="50" y="335">id</text>
    <text class="type" x="238" y="335">id</text>
    <text class="col" x="50" y="353">identity_id</text>
    <text class="type" x="238" y="353">id</text>
    <text class="col" x="50" y="371">kind</text>
    <text class="type" x="238" y="371">IdentityCredentialKind</text>
    <text class="col" x="50" y="389">status</text>
    <text class="type" x="238" y="389">IdentityCredentialStatus</text>
    <text class="col" x="50" y="407">secret</text>
    <text class="type" x="238" y="407">text</text>
    <text class="col" x="50" y="425">at</text>
    <text class="type" x="238" y="425">text</text>
  </g>
  <g class="table">
    <rect class="box" x="40" y="770" width="208" height="80" rx="6" />
    <rect class="head" x="40" y="770" width="208" height="26" rx="6" />
    <text class="thead" x="50" y="788">identity_token_revocations</text>
    <text class="pk" x="50" y="809">id</text>
    <text class="type" x="238" y="809">id</text>
    <text class="col" x="50" y="827">identity_id</text>
    <text class="type" x="238" y="827">id</text>
    <text class="col" x="50" y="845">at</text>
    <text class="type" x="238" y="845">text</text>
  </g>
  <g class="table">
    <rect class="box" x="648" y="732" width="208" height="98" rx="6" />
    <rect class="head" x="648" y="732" width="208" height="26" rx="6" />
    <text class="thead" x="658" y="750">identity_default_organizations</text>
    <text class="pk" x="658" y="771">id</text>
    <text class="type" x="846" y="771">id</text>
    <text class="col" x="658" y="789">identity_id</text>
    <text class="type" x="846" y="789">id</text>
    <text class="fk" x="658" y="807">organization_id</text>
    <text class="type" x="846" y="807">id</text>
    <text class="col" x="658" y="825">at</text>
    <text class="type" x="846" y="825">text</text>
  </g>
  <g class="table">
    <rect class="box" x="952" y="660" width="208" height="152" rx="6" />
    <rect class="head" x="952" y="660" width="208" height="26" rx="6" />
    <text class="thead" x="962" y="678">role_grants</text>
    <text class="pk" x="962" y="699">id</text>
    <text class="type" x="1150" y="699">id</text>
    <text class="fk" x="962" y="717">organization_id</text>
    <text class="type" x="1150" y="717">id</text>
    <text class="col" x="962" y="735">identity_id</text>
    <text class="type" x="1150" y="735">id</text>
    <text class="col" x="962" y="753">role</text>
    <text class="type" x="1150" y="753">text</text>
    <text class="col" x="962" y="771">action</text>
    <text class="type" x="1150" y="771">RoleGrantAction</text>
    <text class="col" x="962" y="789">by_member_id</text>
    <text class="type" x="1150" y="789">id</text>
    <text class="col" x="962" y="807">at</text>
    <text class="type" x="1150" y="807">text</text>
  </g>
  <g class="table">
    <rect class="box" x="40" y="40" width="208" height="134" rx="6" />
    <rect class="head" x="40" y="40" width="208" height="26" rx="6" />
    <text class="thead" x="50" y="58">clients</text>
    <text class="pk" x="50" y="79">id</text>
    <text class="type" x="238" y="79">id</text>
    <text class="col" x="50" y="97">grant_types</text>
    <text class="type" x="238" y="97">text</text>
    <text class="col" x="50" y="115">redirect_uris</text>
    <text class="type" x="238" y="115">text</text>
    <text class="col" x="50" y="133">jwks</text>
    <text class="type" x="238" y="133">text</text>
    <text class="col" x="50" y="151">aud</text>
    <text class="type" x="238" y="151">text</text>
    <text class="col" x="50" y="169">status</text>
    <text class="type" x="238" y="169">ClientStatus</text>
  </g>
  <g class="table">
    <rect class="box" x="40" y="606" width="208" height="134" rx="6" />
    <rect class="head" x="40" y="606" width="208" height="26" rx="6" />
    <text class="thead" x="50" y="624">identity_providers</text>
    <text class="pk" x="50" y="645">id</text>
    <text class="type" x="238" y="645">id</text>
    <text class="col" x="50" y="663">identity_id</text>
    <text class="type" x="238" y="663">id</text>
    <text class="col" x="50" y="681">provider</text>
    <text class="type" x="238" y="681">text</text>
    <text class="col" x="50" y="699">provider_subject</text>
    <text class="type" x="238" y="699">text</text>
    <text class="col" x="50" y="717">action</text>
    <text class="type" x="238" y="717">IdentityProviderAction</text>
    <text class="col" x="50" y="735">at</text>
    <text class="type" x="238" y="735">text</text>
  </g>
  <g class="table">
    <rect class="box" x="648" y="514" width="208" height="188" rx="6" />
    <rect class="head" x="648" y="514" width="208" height="26" rx="6" />
    <text class="thead" x="658" y="532">ideas</text>
    <text class="pk" x="658" y="553">id</text>
    <text class="type" x="846" y="553">id</text>
    <text class="fk" x="658" y="571">organization_id</text>
    <text class="type" x="846" y="571">id</text>
    <text class="col" x="658" y="589">title</text>
    <text class="type" x="846" y="589">text</text>
    <text class="col" x="658" y="607">position</text>
    <text class="type" x="846" y="607">num</text>
    <text class="col" x="658" y="625">problem_statement</text>
    <text class="type" x="846" y="625">text</text>
    <text class="col" x="658" y="643">target_users</text>
    <text class="type" x="846" y="643">text</text>
    <text class="col" x="658" y="661">proposed_solution</text>
    <text class="type" x="846" y="661">text</text>
    <text class="col" x="658" y="679">expected_outcome</text>
    <text class="type" x="846" y="679">text</text>
    <text class="col" x="658" y="697">success_metrics</text>
    <text class="type" x="846" y="697">text</text>
  </g>
  <g class="table">
    <rect class="box" x="952" y="278" width="208" height="206" rx="6" />
    <rect class="head" x="952" y="278" width="208" height="26" rx="6" />
    <text class="thead" x="962" y="296">projects</text>
    <text class="pk" x="962" y="317">id</text>
    <text class="type" x="1150" y="317">id</text>
    <text class="fk" x="962" y="335">organization_id</text>
    <text class="type" x="1150" y="335">id</text>
    <text class="col" x="962" y="353">title</text>
    <text class="type" x="1150" y="353">text</text>
    <text class="col" x="962" y="371">description</text>
    <text class="type" x="1150" y="371">text</text>
    <text class="col" x="962" y="389">progress</text>
    <text class="type" x="1150" y="389">num</text>
    <text class="col" x="962" y="407">start_date</text>
    <text class="type" x="1150" y="407">text</text>
    <text class="col" x="962" y="425">target_end_date</text>
    <text class="type" x="1150" y="425">text</text>
    <text class="col" x="962" y="443">estimated_cost</text>
    <text class="type" x="1150" y="443">num</text>
    <text class="col" x="962" y="461">actual_cost</text>
    <text class="type" x="1150" y="461">num</text>
    <text class="col" x="962" y="479">position</text>
    <text class="type" x="1150" y="479">num</text>
  </g>
  <g class="table">
    <rect class="box" x="648" y="186" width="208" height="152" rx="6" />
    <rect class="head" x="648" y="186" width="208" height="26" rx="6" />
    <text class="thead" x="658" y="204">flows</text>
    <text class="pk" x="658" y="225">id</text>
    <text class="type" x="846" y="225">id</text>
    <text class="fk" x="658" y="243">organization_id</text>
    <text class="type" x="846" y="243">id</text>
    <text class="col" x="658" y="261">name</text>
    <text class="type" x="846" y="261">text</text>
    <text class="col" x="658" y="279">is_locked</text>
    <text class="type" x="846" y="279">bool</text>
    <text class="col" x="658" y="297">is_auto_layout</text>
    <text class="type" x="846" y="297">bool</text>
    <text class="col" x="658" y="315">is_auto_fit</text>
    <text class="type" x="846" y="315">bool</text>
    <text class="col" x="658" y="333">lock_timeout</text>
    <text class="type" x="846" y="333">num</text>
  </g>
  <g class="table">
    <rect class="box" x="1560" y="386" width="208" height="188" rx="6" />
    <rect class="head" x="1560" y="386" width="208" height="26" rx="6" />
    <text class="thead" x="1570" y="404">flow_versions</text>
    <text class="pk" x="1570" y="425">id</text>
    <text class="type" x="1758" y="425">id</text>
    <text class="fk" x="1570" y="443">flow_id</text>
    <text class="type" x="1758" y="443">id</text>
    <text class="col" x="1570" y="461">name</text>
    <text class="type" x="1758" y="461">text</text>
    <text class="col" x="1570" y="479">is_locked</text>
    <text class="type" x="1758" y="479">bool</text>
    <text class="col" x="1570" y="497">is_auto_layout</text>
    <text class="type" x="1758" y="497">bool</text>
    <text class="col" x="1570" y="515">is_auto_fit</text>
    <text class="type" x="1758" y="515">bool</text>
    <text class="col" x="1570" y="533">lock_timeout</text>
    <text class="type" x="1758" y="533">num</text>
    <text class="col" x="1570" y="551">graph</text>
    <text class="type" x="1758" y="551">json</text>
    <text class="col" x="1570" y="569">at</text>
    <text class="type" x="1758" y="569">text</text>
  </g>
  <g class="table">
    <rect class="box" x="1560" y="40" width="208" height="188" rx="6" />
    <rect class="head" x="1560" y="40" width="208" height="26" rx="6" />
    <text class="thead" x="1570" y="58">flow_nodes</text>
    <text class="pk" x="1570" y="79">id</text>
    <text class="type" x="1758" y="79">id</text>
    <text class="fk" x="1570" y="97">flow_id</text>
    <text class="type" x="1758" y="97">id</text>
    <text class="col" x="1570" y="115">name</text>
    <text class="type" x="1758" y="115">text</text>
    <text class="col" x="1570" y="133">position_x</text>
    <text class="type" x="1758" y="133">num</text>
    <text class="col" x="1570" y="151">position_y</text>
    <text class="type" x="1758" y="151">num</text>
    <text class="col" x="1570" y="169">is_create</text>
    <text class="type" x="1758" y="169">bool</text>
    <text class="col" x="1570" y="187">is_archive</text>
    <text class="type" x="1758" y="187">bool</text>
    <text class="col" x="1570" y="205">task_instructions</text>
    <text class="type" x="1758" y="205">text</text>
    <text class="col" x="1570" y="223">at</text>
    <text class="type" x="1758" y="223">text</text>
  </g>
  <g class="table">
    <rect class="box" x="2168" y="40" width="208" height="134" rx="6" />
    <rect class="head" x="2168" y="40" width="208" height="26" rx="6" />
    <text class="thead" x="2178" y="58">flow_edges</text>
    <text class="pk" x="2178" y="79">id</text>
    <text class="type" x="2366" y="79">id</text>
    <text class="fk" x="2178" y="97">flow_id</text>
    <text class="type" x="2366" y="97">id</text>
    <text class="col" x="2178" y="115">name</text>
    <text class="type" x="2366" y="115">text</text>
    <text class="fk" x="2178" y="133">from_node_id</text>
    <text class="type" x="2366" y="133">id</text>
    <text class="fk" x="2178" y="151">to_node_id</text>
    <text class="type" x="2366" y="151">id</text>
    <text class="col" x="2178" y="169">at</text>
    <text class="type" x="2366" y="169">text</text>
  </g>
  <g class="table">
    <rect class="box" x="2168" y="386" width="208" height="116" rx="6" />
    <rect class="head" x="2168" y="386" width="208" height="26" rx="6" />
    <text class="thead" x="2178" y="404">flow_node_members</text>
    <text class="pk" x="2178" y="425">id</text>
    <text class="type" x="2366" y="425">id</text>
    <text class="fk" x="2178" y="443">flow_node_id</text>
    <text class="type" x="2366" y="443">id</text>
    <text class="fk" x="2178" y="461">member_id</text>
    <text class="type" x="2366" y="461">id</text>
    <text class="col" x="2178" y="479">action</text>
    <text class="type" x="2366" y="479">FlowNodeRelationAction</text>
    <text class="col" x="2178" y="497">at</text>
    <text class="type" x="2366" y="497">text</text>
  </g>
  <g class="table">
    <rect class="box" x="2168" y="204" width="208" height="152" rx="6" />
    <rect class="head" x="2168" y="204" width="208" height="26" rx="6" />
    <text class="thead" x="2178" y="222">flow_node_attributes</text>
    <text class="pk" x="2178" y="243">id</text>
    <text class="type" x="2366" y="243">id</text>
    <text class="fk" x="2178" y="261">flow_node_id</text>
    <text class="type" x="2366" y="261">id</text>
    <text class="fk" x="2178" y="279">attribute_id</text>
    <text class="type" x="2366" y="279">id</text>
    <text class="col" x="2178" y="297">mode</text>
    <text class="type" x="2366" y="297">'editable' | 'readonly'</text>
    <text class="col" x="2178" y="315">is_required</text>
    <text class="type" x="2366" y="315">bool</text>
    <text class="col" x="2178" y="333">action</text>
    <text class="type" x="2366" y="333">FlowNodeRelationAction</text>
    <text class="col" x="2178" y="351">at</text>
    <text class="type" x="2366" y="351">text</text>
  </g>
  <g class="table">
    <rect class="box" x="1864" y="40" width="208" height="98" rx="6" />
    <rect class="head" x="1864" y="40" width="208" height="26" rx="6" />
    <text class="thead" x="1874" y="58">project_flows</text>
    <text class="pk" x="1874" y="79">id</text>
    <text class="type" x="2062" y="79">id</text>
    <text class="fk" x="1874" y="97">project_id</text>
    <text class="type" x="2062" y="97">id</text>
    <text class="fk" x="1874" y="115">flow_id</text>
    <text class="type" x="2062" y="115">id</text>
    <text class="col" x="1874" y="133">at</text>
    <text class="type" x="2062" y="133">text</text>
  </g>
  <g class="table">
    <rect class="box" x="1256" y="40" width="208" height="116" rx="6" />
    <rect class="head" x="1256" y="40" width="208" height="26" rx="6" />
    <text class="thead" x="1266" y="58">work_orders</text>
    <text class="pk" x="1266" y="79">id</text>
    <text class="type" x="1454" y="79">id</text>
    <text class="fk" x="1266" y="97">organization_id</text>
    <text class="type" x="1454" y="97">id</text>
    <text class="col" x="1266" y="115">display_id</text>
    <text class="type" x="1454" y="115">text</text>
    <text class="col" x="1266" y="133">flow_graph</text>
    <text class="type" x="1454" y="133">json</text>
    <text class="col" x="1266" y="151">position</text>
    <text class="type" x="1454" y="151">num</text>
  </g>
  <g class="table">
    <rect class="box" x="1560" y="604" width="208" height="98" rx="6" />
    <rect class="head" x="1560" y="604" width="208" height="26" rx="6" />
    <text class="thead" x="1570" y="622">flow_work_orders</text>
    <text class="pk" x="1570" y="643">id</text>
    <text class="type" x="1758" y="643">id</text>
    <text class="fk" x="1570" y="661">flow_id</text>
    <text class="type" x="1758" y="661">id</text>
    <text class="fk" x="1570" y="679">work_order_id</text>
    <text class="type" x="1758" y="679">id</text>
    <text class="col" x="1570" y="697">at</text>
    <text class="type" x="1758" y="697">text</text>
  </g>
  <g class="table">
    <rect class="box" x="2168" y="532" width="208" height="98" rx="6" />
    <rect class="head" x="2168" y="532" width="208" height="26" rx="6" />
    <text class="thead" x="2178" y="550">state_field_values</text>
    <text class="pk" x="2178" y="571">id</text>
    <text class="type" x="2366" y="571">id</text>
    <text class="fk" x="2178" y="589">state_event_id</text>
    <text class="type" x="2366" y="589">id</text>
    <text class="fk" x="2178" y="607">attribute_id</text>
    <text class="type" x="2366" y="607">id</text>
    <text class="col" x="2178" y="625">value</text>
    <text class="type" x="2366" y="625">text</text>
  </g>
  <g class="table">
    <rect class="box" x="952" y="514" width="208" height="116" rx="6" />
    <rect class="head" x="952" y="514" width="208" height="26" rx="6" />
    <text class="thead" x="962" y="532">records</text>
    <text class="pk" x="962" y="553">id</text>
    <text class="type" x="1150" y="553">id</text>
    <text class="fk" x="962" y="571">organization_id</text>
    <text class="type" x="1150" y="571">id</text>
    <text class="col" x="962" y="589">name</text>
    <text class="type" x="1150" y="589">text</text>
    <text class="col" x="962" y="607">description</text>
    <text class="type" x="1150" y="607">text</text>
    <text class="col" x="962" y="625">position</text>
    <text class="type" x="1150" y="625">num</text>
  </g>
  <g class="table">
    <rect class="box" x="1864" y="496" width="208" height="170" rx="6" />
    <rect class="head" x="1864" y="496" width="208" height="26" rx="6" />
    <text class="thead" x="1874" y="514">record_attributes</text>
    <text class="pk" x="1874" y="535">id</text>
    <text class="type" x="2062" y="535">id</text>
    <text class="fk" x="1874" y="553">organization_id</text>
    <text class="type" x="2062" y="553">id</text>
    <text class="fk" x="1874" y="571">record_id</text>
    <text class="type" x="2062" y="571">id</text>
    <text class="col" x="1874" y="589">name</text>
    <text class="type" x="2062" y="589">text</text>
    <text class="col" x="1874" y="607">attribute_type</text>
    <text class="type" x="2062" y="607">AttributeType</text>
    <text class="col" x="1874" y="625">sort_order</text>
    <text class="type" x="2062" y="625">num</text>
    <text class="col" x="1874" y="643">options</text>
    <text class="type" x="2062" y="643">json</text>
    <text class="col" x="1874" y="661">constraints</text>
    <text class="type" x="2062" y="661">json</text>
  </g>
  <g class="table">
    <rect class="box" x="1560" y="258" width="208" height="98" rx="6" />
    <rect class="head" x="1560" y="258" width="208" height="26" rx="6" />
    <text class="thead" x="1570" y="276">flow_records</text>
    <text class="pk" x="1570" y="297">id</text>
    <text class="type" x="1758" y="297">id</text>
    <text class="fk" x="1570" y="315">flow_id</text>
    <text class="type" x="1758" y="315">id</text>
    <text class="fk" x="1570" y="333">record_id</text>
    <text class="type" x="1758" y="333">id</text>
    <text class="col" x="1570" y="351">at</text>
    <text class="type" x="1758" y="351">text</text>
  </g>
  <g class="table">
    <rect class="box" x="344" y="132" width="208" height="152" rx="6" />
    <rect class="head" x="344" y="132" width="208" height="26" rx="6" />
    <text class="thead" x="354" y="150">organizations</text>
    <text class="pk" x="354" y="171">id</text>
    <text class="type" x="542" y="171">id</text>
    <text class="col" x="354" y="189">name</text>
    <text class="type" x="542" y="189">text</text>
    <text class="col" x="354" y="207">domain</text>
    <text class="type" x="542" y="207">text</text>
    <text class="col" x="354" y="225">next_billing</text>
    <text class="type" x="542" y="225">text</text>
    <text class="col" x="354" y="243">seats</text>
    <text class="type" x="542" y="243">num</text>
    <text class="col" x="354" y="261">projects_limit</text>
    <text class="type" x="542" y="261">num</text>
    <text class="col" x="354" y="279">ideas_limit</text>
    <text class="type" x="542" y="279">num</text>
  </g>
  <g class="table">
    <rect class="box" x="952" y="40" width="208" height="98" rx="6" />
    <rect class="head" x="952" y="40" width="208" height="26" rx="6" />
    <text class="thead" x="962" y="58">memberships</text>
    <text class="pk" x="962" y="79">id</text>
    <text class="type" x="1150" y="79">id</text>
    <text class="fk" x="962" y="97">organization_id</text>
    <text class="type" x="1150" y="97">id</text>
    <text class="col" x="962" y="115">identity_id</text>
    <text class="type" x="1150" y="115">id</text>
    <text class="col" x="962" y="133">at</text>
    <text class="type" x="1150" y="133">text</text>
  </g>
  <g class="table">
    <rect class="box" x="648" y="860" width="208" height="98" rx="6" />
    <rect class="head" x="648" y="860" width="208" height="26" rx="6" />
    <text class="thead" x="658" y="878">invitations</text>
    <text class="pk" x="658" y="899">id</text>
    <text class="type" x="846" y="899">id</text>
    <text class="fk" x="658" y="917">organization_id</text>
    <text class="type" x="846" y="917">id</text>
    <text class="col" x="658" y="935">identity_id</text>
    <text class="type" x="846" y="935">id</text>
    <text class="col" x="658" y="953">at</text>
    <text class="type" x="846" y="953">text</text>
  </g>
  <g class="table">
    <rect class="box" x="1560" y="732" width="208" height="98" rx="6" />
    <rect class="head" x="1560" y="732" width="208" height="26" rx="6" />
    <text class="thead" x="1570" y="750">idea_submissions</text>
    <text class="pk" x="1570" y="771">id</text>
    <text class="type" x="1758" y="771">id</text>
    <text class="fk" x="1570" y="789">idea_id</text>
    <text class="type" x="1758" y="789">id</text>
    <text class="fk" x="1570" y="807">member_id</text>
    <text class="type" x="1758" y="807">id</text>
    <text class="col" x="1570" y="825">at</text>
    <text class="type" x="1758" y="825">text</text>
  </g>
  <g class="table">
    <rect class="box" x="952" y="168" width="208" height="80" rx="6" />
    <rect class="head" x="952" y="168" width="208" height="26" rx="6" />
    <text class="thead" x="962" y="186">objectives</text>
    <text class="pk" x="962" y="207">id</text>
    <text class="type" x="1150" y="207">id</text>
    <text class="fk" x="962" y="225">organization_id</text>
    <text class="type" x="1150" y="225">id</text>
    <text class="col" x="962" y="243">position</text>
    <text class="type" x="1150" y="243">num</text>
  </g>
  <g class="table">
    <rect class="box" x="1560" y="860" width="208" height="134" rx="6" />
    <rect class="head" x="1560" y="860" width="208" height="26" rx="6" />
    <text class="thead" x="1570" y="878">objective_revisions</text>
    <text class="pk" x="1570" y="899">id</text>
    <text class="type" x="1758" y="899">id</text>
    <text class="fk" x="1570" y="917">objective_id</text>
    <text class="type" x="1758" y="917">id</text>
    <text class="col" x="1570" y="935">name</text>
    <text class="type" x="1758" y="935">text</text>
    <text class="col" x="1570" y="953">description</text>
    <text class="type" x="1758" y="953">text</text>
    <text class="fk" x="1570" y="971">member_id</text>
    <text class="type" x="1758" y="971">id</text>
    <text class="col" x="1570" y="989">at</text>
    <text class="type" x="1758" y="989">text</text>
  </g>
  <g class="table">
    <rect class="box" x="1864" y="332" width="208" height="134" rx="6" />
    <rect class="head" x="1864" y="332" width="208" height="26" rx="6" />
    <text class="thead" x="1874" y="350">project_objective_baseline_scores</text>
    <text class="pk" x="1874" y="371">id</text>
    <text class="type" x="2062" y="371">id</text>
    <text class="fk" x="1874" y="389">project_id</text>
    <text class="type" x="2062" y="389">id</text>
    <text class="fk" x="1874" y="407">objective_id</text>
    <text class="type" x="2062" y="407">id</text>
    <text class="col" x="1874" y="425">score</text>
    <text class="type" x="2062" y="425">num</text>
    <text class="fk" x="1874" y="443">member_id</text>
    <text class="type" x="2062" y="443">id</text>
    <text class="col" x="1874" y="461">at</text>
    <text class="type" x="2062" y="461">text</text>
  </g>
  <g class="table">
    <rect class="box" x="1864" y="168" width="208" height="134" rx="6" />
    <rect class="head" x="1864" y="168" width="208" height="26" rx="6" />
    <text class="thead" x="1874" y="186">project_objective_actual_scores</text>
    <text class="pk" x="1874" y="207">id</text>
    <text class="type" x="2062" y="207">id</text>
    <text class="fk" x="1874" y="225">project_id</text>
    <text class="type" x="2062" y="225">id</text>
    <text class="fk" x="1874" y="243">objective_id</text>
    <text class="type" x="2062" y="243">id</text>
    <text class="col" x="1874" y="261">score</text>
    <text class="type" x="2062" y="261">num</text>
    <text class="fk" x="1874" y="279">member_id</text>
    <text class="type" x="2062" y="279">id</text>
    <text class="col" x="1874" y="297">at</text>
    <text class="type" x="2062" y="297">text</text>
  </g>
  <g class="table">
    <rect class="box" x="344" y="314" width="208" height="152" rx="6" />
    <rect class="head" x="344" y="314" width="208" height="26" rx="6" />
    <text class="thead" x="354" y="332">requests</text>
    <text class="pk" x="354" y="353">id</text>
    <text class="type" x="542" y="353">id</text>
    <text class="col" x="354" y="371">uri_prefix</text>
    <text class="type" x="542" y="371">text</text>
    <text class="col" x="354" y="389">uri_id</text>
    <text class="type" x="542" y="389">text</text>
    <text class="col" x="354" y="407">at</text>
    <text class="type" x="542" y="407">text</text>
    <text class="col" x="354" y="425">requester_identity_id</text>
    <text class="type" x="542" y="425">id</text>
    <text class="col" x="354" y="443">message_hash</text>
    <text class="type" x="542" y="443">text</text>
    <text class="col" x="354" y="461">message</text>
    <text class="type" x="542" y="461">text</text>
  </g>
  <g class="table">
    <rect class="box" x="344" y="496" width="208" height="206" rx="6" />
    <rect class="head" x="344" y="496" width="208" height="26" rx="6" />
    <text class="thead" x="354" y="514">responses</text>
    <text class="pk" x="354" y="535">id</text>
    <text class="type" x="542" y="535">id</text>
    <text class="col" x="354" y="553">uri_prefix</text>
    <text class="type" x="542" y="553">text</text>
    <text class="col" x="354" y="571">uri_id</text>
    <text class="type" x="542" y="571">text</text>
    <text class="col" x="354" y="589">at</text>
    <text class="type" x="542" y="589">text</text>
    <text class="col" x="354" y="607">status</text>
    <text class="type" x="542" y="607">num</text>
    <text class="col" x="354" y="625">etag</text>
    <text class="type" x="542" y="625">text</text>
    <text class="col" x="354" y="643">message_hash</text>
    <text class="type" x="542" y="643">text</text>
    <text class="col" x="354" y="661">message</text>
    <text class="type" x="542" y="661">text</text>
    <text class="col" x="354" y="679">follows</text>
    <text class="type" x="542" y="679">text</text>
    <text class="col" x="354" y="697">supersedes</text>
    <text class="type" x="542" y="697">text</text>
  </g>
  <g class="table">
    <rect class="box" x="952" y="842" width="208" height="116" rx="6" />
    <rect class="head" x="952" y="842" width="208" height="26" rx="6" />
    <text class="thead" x="962" y="860">states</text>
    <text class="pk" x="962" y="881">id</text>
    <text class="type" x="1150" y="881">id</text>
    <text class="col" x="962" y="899">entity_id</text>
    <text class="type" x="1150" y="899">id</text>
    <text class="col" x="962" y="917">state</text>
    <text class="type" x="1150" y="917">text</text>
    <text class="fk" x="962" y="935">member_id</text>
    <text class="type" x="1150" y="935">id</text>
    <text class="col" x="962" y="953">at</text>
    <text class="type" x="1150" y="953">text</text>
  </g>
</svg>
