<svg xmlns="http://www.w3.org/2000/svg" viewBox="0 0 288 960" width="288" height="960">
  <defs>
    <style>
      text { font-family: ui-sans-serif, system-ui,
        'Segoe UI', Helvetica, Arial, sans-serif; }
      .box { fill: hsl(0 0% 100%);
        stroke: hsl(217 30% 88%); stroke-width: 1; }
      .head { fill: hsl(217 36% 46%); }
      .thead { fill: hsl(0 0% 100%); font-size: 12px;
        font-weight: 700; }
      .col, .pk, .fk, .type { font-size: 11px; }
      .col { fill: hsl(217 45% 15%); }
      .pk { fill: hsl(217 45% 15%); font-weight: 700; }
      .fk { fill: hsl(217 38% 38%);
        font-style: italic; }
      .type { fill: hsl(217 12% 55%);
        text-anchor: end; }
      .edge { fill: none; stroke: hsl(217 34% 60%);
        stroke-width: 1.5; }
    </style>
  </defs>
  <rect x="0" y="0" width="288" height="960" fill="hsl(217 30% 97%)" />
  <g class="table">
    <rect class="box" x="40" y="40" width="208" height="134" rx="6" />
    <rect class="head" x="40" y="40" width="208" height="26" rx="6" />
    <text class="thead" x="50" y="58">clients</text>
    <text class="pk" x="50" y="79">id</text>
    <text class="type" x="238" y="79">id</text>
    <text class="col" x="50" y="97">grant_types</text>
    <text class="type" x="238" y="97">text</text>
    <text class="col" x="50" y="115">redirect_uris</text>
    <text class="type" x="238" y="115">text</text>
    <text class="col" x="50" y="133">jwks</text>
    <text class="type" x="238" y="133">text</text>
    <text class="col" x="50" y="151">aud</text>
    <text class="type" x="238" y="151">text</text>
    <text class="col" x="50" y="169">status</text>
    <text class="type" x="238" y="169">ClientStatus</text>
  </g>
  <g class="table">
    <rect class="box" x="40" y="204" width="208" height="152" rx="6" />
    <rect class="head" x="40" y="204" width="208" height="26" rx="6" />
    <text class="thead" x="50" y="222">organizations</text>
    <text class="pk" x="50" y="243">id</text>
    <text class="type" x="238" y="243">id</text>
    <text class="col" x="50" y="261">name</text>
    <text class="type" x="238" y="261">text</text>
    <text class="col" x="50" y="279">domain</text>
    <text class="type" x="238" y="279">text</text>
    <text class="col" x="50" y="297">next_billing</text>
    <text class="type" x="238" y="297">text</text>
    <text class="col" x="50" y="315">seats</text>
    <text class="type" x="238" y="315">num</text>
    <text class="col" x="50" y="333">projects_limit</text>
    <text class="type" x="238" y="333">num</text>
    <text class="col" x="50" y="351">ideas_limit</text>
    <text class="type" x="238" y="351">num</text>
  </g>
  <g class="table">
    <rect class="box" x="40" y="386" width="208" height="152" rx="6" />
    <rect class="head" x="40" y="386" width="208" height="26" rx="6" />
    <text class="thead" x="50" y="404">requests</text>
    <text class="pk" x="50" y="425">id</text>
    <text class="type" x="238" y="425">id</text>
    <text class="col" x="50" y="443">uri_prefix</text>
    <text class="type" x="238" y="443">text</text>
    <text class="col" x="50" y="461">uri_id</text>
    <text class="type" x="238" y="461">text</text>
    <text class="col" x="50" y="479">at</text>
    <text class="type" x="238" y="479">text</text>
    <text class="col" x="50" y="497">requester_identity_id</text>
    <text class="type" x="238" y="497">id</text>
    <text class="col" x="50" y="515">message_hash</text>
    <text class="type" x="238" y="515">text</text>
    <text class="col" x="50" y="533">message</text>
    <text class="type" x="238" y="533">text</text>
  </g>
  <g class="table">
    <rect class="box" x="40" y="568" width="208" height="206" rx="6" />
    <rect class="head" x="40" y="568" width="208" height="26" rx="6" />
    <text class="thead" x="50" y="586">responses</text>
    <text class="pk" x="50" y="607">id</text>
    <text class="type" x="238" y="607">id</text>
    <text class="col" x="50" y="625">uri_prefix</text>
    <text class="type" x="238" y="625">text</text>
    <text class="col" x="50" y="643">uri_id</text>
    <text class="type" x="238" y="643">text</text>
    <text class="col" x="50" y="661">at</text>
    <text class="type" x="238" y="661">text</text>
    <text class="col" x="50" y="679">status</text>
    <text class="type" x="238" y="679">num</text>
    <text class="col" x="50" y="697">etag</text>
    <text class="type" x="238" y="697">text</text>
    <text class="col" x="50" y="715">message_hash</text>
    <text class="type" x="238" y="715">text</text>
    <text class="col" x="50" y="733">message</text>
    <text class="type" x="238" y="733">text</text>
    <text class="col" x="50" y="751">follows</text>
    <text class="type" x="238" y="751">text</text>
    <text class="col" x="50" y="769">supersedes</text>
    <text class="type" x="238" y="769">text</text>
  </g>
  <g class="table">
    <rect class="box" x="40" y="804" width="208" height="116" rx="6" />
    <rect class="head" x="40" y="804" width="208" height="26" rx="6" />
    <text class="thead" x="50" y="822">states</text>
    <text class="pk" x="50" y="843">id</text>
    <text class="type" x="238" y="843">id</text>
    <text class="col" x="50" y="861">entity_id</text>
    <text class="type" x="238" y="861">id</text>
    <text class="col" x="50" y="879">state</text>
    <text class="type" x="238" y="879">text</text>
    <text class="col" x="50" y="897">member_id</text>
    <text class="type" x="238" y="897">id</text>
    <text class="col" x="50" y="915">at</text>
    <text class="type" x="238" y="915">text</text>
  </g>
</svg>
